<svg width="178" height="196" viewBox="0 0 178 196" fill="none" xmlns="http://www.w3.org/2000/svg">
<path d="M173.652 128.456L110.171 72.3442C107.11 69.6388 102.103 69.5907 98.9914 72.2367L91.4621 78.6387C88.3534 81.2819 88.3085 85.611 91.3558 88.3192L141.665 132.995L90.5094 176.698C87.4073 179.347 87.3723 183.677 90.4295 186.379L97.8344 192.925C100.895 195.63 105.902 195.678 109.014 193.032L173.559 138.148C176.671 135.502 176.713 131.162 173.652 128.456V128.456Z" fill="#007CFF"/>
<path d="M4.33073 61.1114L68.9059 3.45554C72.0192 0.675686 77.0258 0.723819 80.0851 3.56301L87.4868 10.4322C90.5428 13.2684 90.5024 17.814 87.4022 20.597L36.2218 66.5068L86.5068 113.395C89.5562 116.237 89.5059 120.783 86.3959 123.56L78.8635 130.285C75.7502 133.065 70.7436 133.017 67.6843 130.178L4.23289 71.2881C1.17361 68.4489 1.21743 63.8913 4.33073 61.1114V61.1114Z" fill="#171717"/>
</svg>
